<svg width="256" height="275" viewBox="0 0 256 275" fill="none" xmlns="http://www.w3.org/2000/svg">
<g clip-path="url(#clip0_29_56)">
<path d="M252.154 194.867C250.923 191.411 249.484 188.067 248.115 184.969C246.008 180.203 243.801 175.428 241.666 170.812L241.497 170.446C222.457 129.216 202.022 87.4202 180.759 46.2242L179.856 44.4742C177.687 40.2682 175.445 35.9182 173.144 31.6442C170.414 26.2345 167.103 21.1384 163.269 16.4462C158.95 11.2954 153.554 7.1539 147.461 4.31321C141.364 1.47167 134.72 -0.000375134 127.993 0.000488661C121.267 0.00135246 114.622 1.47511 108.526 4.31821C102.435 7.16056 97.0401 11.3034 92.7222 16.4552C88.892 21.1481 85.5826 26.243 82.8522 31.6502C80.5322 35.9632 78.2682 40.3532 76.0792 44.5992L75.2412 46.2242C53.9772 87.4242 33.5422 129.218 14.5032 170.445L14.2252 171.045C12.1272 175.585 9.95819 180.281 7.88619 184.967C6.51619 188.063 5.08019 191.404 3.84719 194.869C0.316847 204.307 -0.808321 214.476 0.573185 224.457C2.03988 234.547 6.11987 244.078 12.4082 252.103C18.7022 260.135 26.9844 266.384 36.4352 270.232C43.5773 273.121 51.2119 274.598 58.9162 274.581C61.3362 274.581 63.7552 274.439 66.1592 274.159C75.9024 272.918 85.3006 269.747 93.8042 264.832C104.956 258.567 115.969 249.386 128 236.266C140.031 249.386 151.044 258.567 162.196 264.832C170.7 269.747 180.098 272.918 189.841 274.159C192.246 274.439 194.664 274.58 197.085 274.581C204.789 274.598 212.423 273.121 219.565 270.232C229.016 266.384 237.298 260.134 243.592 252.102C249.881 244.077 253.961 234.547 255.428 224.457C256.808 214.475 255.683 204.306 252.154 194.867ZM128 209.17C113.107 190.292 103.55 172.761 100.196 158.064C98.8224 152.557 98.4981 146.841 99.2402 141.214C99.8255 137.088 101.341 133.149 103.672 129.694C106.542 125.975 110.227 122.963 114.444 120.892C118.664 118.821 123.302 117.744 128.002 117.744C132.703 117.744 137.341 118.822 141.56 120.894C145.776 122.966 149.461 125.978 152.33 129.697C154.66 133.153 156.175 137.093 156.762 141.219C157.504 146.848 157.178 152.567 155.802 158.075C152.444 172.77 142.89 190.296 128 209.17ZM238.032 221.972C237.006 229.027 234.153 235.69 229.757 241.302C225.356 246.918 219.565 251.287 212.957 253.979C206.272 256.658 199.019 257.607 191.869 256.737C184.439 255.781 177.277 253.335 170.814 249.546C160.888 243.969 150.84 235.408 139.534 222.85C157.533 200.655 168.773 180.198 172.934 161.977C174.807 154.316 175.214 146.369 174.131 138.556C173.149 131.825 170.651 125.405 166.824 119.78C162.339 113.708 156.49 108.773 149.749 105.375C143.004 101.974 135.556 100.203 128.002 100.202C120.448 100.202 112.999 101.973 106.254 105.373C99.5132 108.771 93.6645 113.704 89.1792 119.776C85.353 125.399 82.8541 131.817 81.8712 138.547C80.7877 146.356 81.1914 154.3 83.0612 161.959C87.2212 180.188 98.4612 200.649 116.467 222.851C105.16 235.408 95.1122 243.969 85.1862 249.547C78.7228 253.335 71.5616 255.781 64.1312 256.737C56.9814 257.607 49.7278 256.658 43.0422 253.979C36.4345 251.287 30.6437 246.918 26.2422 241.302C21.8471 235.69 18.9952 229.026 17.9692 221.972C16.9841 214.803 17.8223 207.501 20.4062 200.741C21.3892 197.98 22.5382 195.27 23.9622 192.051C25.9772 187.496 28.1152 182.866 30.1832 178.39L30.4612 177.788C49.3942 136.792 69.7162 95.2302 90.8642 54.2552L91.7062 52.6242C93.8592 48.4462 96.0862 44.1272 98.3322 39.9542C100.481 35.6522 103.082 31.591 106.09 27.8392C108.758 24.617 112.104 22.0239 115.89 20.2452C121.599 17.5616 128.038 16.8508 134.195 18.2247C140.352 19.5985 145.878 22.9791 149.905 27.8352C152.916 31.5843 155.517 35.6443 157.665 39.9462C159.89 44.0822 162.097 48.3622 164.232 52.5012L165.136 54.2572C186.283 95.2272 206.605 136.788 225.54 177.792L225.71 178.161C227.814 182.713 229.99 187.418 232.038 192.052C233.464 195.276 234.615 197.988 235.595 200.739C238.177 207.5 239.015 214.802 238.032 221.972Z" fill="#FF9800"/>
</g>
<defs>
<clipPath id="clip0_29_56">
<rect width="256" height="275" fill="white"/>
</clipPath>
</defs>
</svg>
